#define q_width 50
#define q_height 20
static char q_bits[] = {
 0x00,0x00,0x00,0x00,0x00,0x00,0x00,0x00,0x38,0x00,0x00,0x00,0x00,0x00,0x00,
 0x44,0x00,0x00,0x00,0x00,0x00,0x00,0x82,0x00,0x00,0x00,0x00,0x00,0x00,0x01,
 0x01,0x00,0x00,0x00,0x00,0x00,0x01,0x01,0x00,0x00,0x00,0x00,0x80,0x00,0x02,
 0x00,0x00,0x00,0x00,0x80,0x00,0x02,0x00,0x00,0x00,0x00,0x80,0x00,0xc2,0xf9,
 0xfd,0x01,0x00,0x80,0x00,0x82,0x90,0x24,0x01,0x00,0x80,0x00,0x82,0x90,0x20,
 0x00,0x00,0x80,0x00,0x82,0x90,0x20,0x00,0x00,0x00,0x21,0x81,0x90,0x20,0x00,
 0x00,0x00,0x41,0x81,0x90,0x20,0x00,0x00,0x00,0x82,0x80,0x90,0x20,0x00,0x00,
 0x00,0xc4,0x80,0x99,0x20,0x00,0x00,0x00,0x38,0x01,0xcf,0x71,0x00,0x00,0x00,
 0x00,0x02,0x00,0x00,0x00,0x00,0x00,0x00,0x00,0x00,0x00,0x00,0x00,0x00,0x00,
 0x00,0x00,0x00,0x00,0x00};
